<svg width="42" height="42" viewBox="0 0 42 42" fill="none" xmlns="http://www.w3.org/2000/svg">
<path fill-rule="evenodd" clip-rule="evenodd" d="M21 0.166668C9.49374 0.166668 0.166656 9.49375 0.166656 21C0.166656 32.5062 9.49374 41.8333 21 41.8333C32.5062 41.8333 41.8333 32.5062 41.8333 21C41.8333 9.49375 32.5062 0.166668 21 0.166668ZM13.7083 15.7917C13.7083 14.8341 13.8969 13.8859 14.2634 13.0013C14.6298 12.1166 15.1669 11.3128 15.844 10.6357C16.5211 9.95859 17.3249 9.42149 18.2096 9.05505C19.0943 8.68861 20.0424 8.5 21 8.5C21.9575 8.5 22.9057 8.68861 23.7904 9.05505C24.6751 9.42149 25.4789 9.95859 26.156 10.6357C26.8331 11.3128 27.3702 12.1166 27.7366 13.0013C28.1031 13.8859 28.2917 14.8341 28.2917 15.7917C28.2917 17.7255 27.5234 19.5802 26.156 20.9477C24.7885 22.3151 22.9339 23.0833 21 23.0833C19.0661 23.0833 17.2115 22.3151 15.844 20.9477C14.4765 19.5802 13.7083 17.7255 13.7083 15.7917ZM34.0375 31.3833C32.478 33.345 30.4954 34.9291 28.2378 36.0171C25.9803 37.1051 23.5061 37.669 21 37.6667C18.4939 37.669 16.0197 37.1051 13.7621 36.0171C11.5046 34.9291 9.522 33.345 7.96249 31.3833C11.3396 28.9604 15.9479 27.25 21 27.25C26.0521 27.25 30.6604 28.9604 34.0375 31.3833Z" fill="#4C40ED"/>
</svg>
